<?xml version="1.0" standalone="no"?>
<!DOCTYPE svg PUBLIC "-//W3C//DTD SVG 20010904//EN"
 "http://www.w3.org/TR/2001/REC-SVG-20010904/DTD/svg10.dtd">
<svg version="1.0" xmlns="http://www.w3.org/2000/svg"
 width="700.000000pt" height="700.000000pt" viewBox="0 0 700.000000 700.000000"
 preserveAspectRatio="xMidYMid meet">
<metadata>
Created by potrace 1.14, written by Peter Selinger 2001-2017
</metadata>
<g transform="translate(0.000000,700.000000) scale(0.100000,-0.100000)"
fill="#000000" stroke="none">
<path d="M3417 6344 c-1 -1 -52 -4 -114 -8 -61 -4 -120 -8 -131 -11 -10 -2
-43 -6 -73 -10 -30 -4 -76 -11 -104 -16 -27 -5 -66 -12 -85 -15 -19 -3 -105
-26 -190 -50 -764 -219 -1392 -737 -1755 -1447 -155 -306 -242 -588 -284 -929
-26 -211 -31 -380 -16 -571 7 -95 31 -284 39 -308 3 -8 7 -30 10 -49 12 -76
67 -273 111 -396 312 -864 1043 -1539 1925 -1777 104 -28 271 -63 347 -72 26
-3 62 -8 78 -10 178 -22 528 -23 645 0 10 2 45 6 77 10 104 11 305 56 450 101
594 184 1111 562 1481 1082 29 39 52 76 52 81 0 5 4 11 9 13 11 4 113 181 165
288 106 216 200 499 240 720 3 19 8 44 10 56 2 12 7 45 11 74 4 29 8 61 10 71
22 112 21 549 -1 662 -2 12 -6 42 -9 67 -8 66 -24 156 -41 230 -124 528 -381
993 -756 1371 -134 134 -167 163 -313 273 -439 329 -937 517 -1485 561 -76 7
-298 13 -303 9z m-137 -458 c4 -96 0 -808 -5 -815 -3 -6 -72 -58 -153 -116
-81 -59 -159 -115 -174 -127 -15 -11 -82 -60 -150 -109 -68 -49 -132 -95 -143
-104 -12 -8 -51 -36 -87 -62 -37 -27 -161 -117 -277 -200 l-210 -153 -83 31
c-45 16 -96 36 -113 44 -16 7 -138 55 -270 105 -132 51 -255 98 -273 106 l-33
13 42 83 c309 614 886 1080 1546 1247 101 26 117 29 248 50 131 21 135 21 135
7z m535 -1 c244 -26 538 -118 791 -249 363 -188 670 -464 898 -806 81 -120
190 -327 177 -334 -5 -3 -51 -22 -103 -41 -51 -20 -102 -40 -113 -45 -24 -11
-453 -177 -508 -196 l-38 -13 -142 102 c-78 57 -223 162 -322 233 -99 72 -218
158 -265 192 -47 34 -89 65 -95 70 -5 4 -90 65 -187 135 -98 71 -180 132 -183
137 -5 8 -7 364 -5 763 0 60 2 68 18 63 9 -2 44 -7 77 -11z m86 -1488 c207
-150 387 -280 400 -289 13 -10 87 -63 164 -119 176 -127 167 -118 156 -154
-12 -42 -125 -398 -166 -525 -18 -58 -61 -193 -95 -300 -34 -107 -80 -253
-104 -325 l-43 -130 -708 -3 c-390 -1 -712 1 -716 5 -4 4 -56 159 -114 343
-58 184 -121 382 -139 440 -85 266 -155 487 -160 507 -6 18 21 41 215 182 123
89 232 168 243 176 371 274 670 483 679 474 7 -5 181 -132 388 -282z m-2466
-418 c143 -56 271 -105 285 -110 41 -15 52 -19 135 -52 l79 -32 58 -180 c31
-99 62 -193 67 -210 5 -16 27 -86 49 -155 22 -69 63 -199 92 -290 73 -231 127
-400 160 -503 l29 -87 -37 -43 c-21 -23 -48 -55 -62 -71 -76 -89 -116 -135
-144 -166 -17 -19 -74 -84 -126 -145 -52 -60 -112 -128 -133 -150 l-38 -40
-80 85 c-275 290 -476 635 -574 983 -14 50 -29 106 -34 122 -5 17 -13 48 -17
70 -4 22 -8 42 -9 45 0 3 -5 30 -9 60 -4 30 -10 64 -12 75 -34 191 -22 551 26
784 11 52 20 98 20 103 0 4 3 8 8 8 4 0 124 -45 267 -101z m4418 24 c47 -224
64 -505 43 -723 -52 -548 -283 -1051 -665 -1450 -77 -80 -82 -84 -96 -66 -8
11 -25 31 -37 45 -45 51 -464 556 -471 567 -3 6 8 53 24 105 17 52 32 99 33
104 2 6 28 91 60 190 45 139 159 502 180 570 2 6 4 12 4 15 0 3 10 29 21 58
11 28 19 52 18 52 -2 0 20 71 48 158 l51 157 120 47 c371 146 630 246 640 247
6 1 18 -34 27 -76z m-1582 -1892 c3 -1 102 -117 220 -258 117 -142 216 -260
219 -263 3 -3 25 -29 49 -58 36 -43 42 -56 30 -63 -41 -28 -153 -91 -219 -124
-223 -112 -512 -201 -745 -229 -16 -2 -55 -7 -85 -11 -164 -21 -488 -8 -665
27 -27 5 -61 12 -75 14 -120 24 -312 84 -442 140 -93 39 -271 132 -323 167
-33 23 -34 24 -17 43 9 10 46 53 82 94 36 41 77 89 92 105 14 17 76 89 138
160 62 72 138 159 169 195 l58 65 754 -1 c415 -1 757 -2 760 -3z"/>
</g>
</svg>
